<svg xmlns="http://www.w3.org/2000/svg" xmlns:xlink="http://www.w3.org/1999/xlink" width="0" height="0" style="display:none;"><symbol id="icon-default-home"><defs><style type="text/css"></style></defs><path d="M877.963636 344.669091L549.585455 114.036364a63.930182 63.930182 0 0 0-73.192728-0.093091L146.385455 344.669091a63.697455 63.697455 0 0 0-27.275637 52.224v473.367273c0 35.141818 28.625455 63.767273 63.767273 63.767272h191.232v0.069819h275.781818v-0.093091h191.348364c35.141818 0 63.744-28.625455 63.744-63.767273V396.916364a63.813818 63.813818 0 0 0-26.996364-52.224zM589.544727 873.565091h-154.996363V594.664727A77.544727 77.544727 0 0 1 512 517.213091a77.544727 77.544727 0 0 1 77.451636 77.451636v278.900364h0.093091z m255.069091-3.304727a3.351273 3.351273 0 0 1-3.281454 3.304727h-191.348364V594.664727a138.053818 138.053818 0 0 0-137.890909-137.890909 138.053818 138.053818 0 0 0-137.890909 137.890909v278.900364H182.853818a3.351273 3.351273 0 0 1-3.304727-3.304727v-473.367273c0-1.024 0.581818-2.071273 1.419636-2.722909l330.007273-230.725818a3.397818 3.397818 0 0 1 3.770182 0l328.378182 230.632727c0.837818 0.651636 1.396364 1.605818 1.396363 2.722909v473.460364h0.116364z" p-id="4907" fill="#8a8a8a"></path></symbol><symbol id="icon-exit"><defs><style type="text/css"></style></defs><path d="M172.8 960c-64 0-108.8-44.8-108.8-96v-704C64 108.8 115.2 64 172.8 64H512v64H172.8c-19.2 0-32 12.8-32 32v704c0 19.2 19.2 32 38.4 32H512v64H172.8z m128-473.6h544l-147.2-147.2 51.2-51.2 185.6 185.6c19.2 12.8 25.6 32 25.6 51.2s-6.4 38.4-19.2 51.2l-185.6 185.6-51.2-51.2 147.2-147.2H300.8V486.4z" fill="#666666" p-id="5671"></path></symbol><symbol id="icon-finance"><defs><style type="text/css"></style></defs><path d="M786.2 603.9h30v30h-30z" fill="#8a8a8a" p-id="3398"></path><path d="M867.6 320h-6.3v-50.7c0-60.7-49.3-110-110-110H623.9l-20.3-40c-5.6-11-15.2-19.1-27.1-22.7s-24.3-2.2-35.1 3.8L174.2 306.7c-9.9-9.1-16.1-22.2-16.1-36.7v-0.7c0-27.6 22.4-50 50-50h121.8l106.8-60H208.1c-60.7 0-110 49.3-110 110V867.6c0 33.1 26.9 60 60 60h709.5c33.1 0 60-26.9 60-60V380c0-33.1-26.9-60-60-60z m0 344.8H764.9c-25.3 0-45.9-20.6-45.9-45.9 0-25.3 20.6-45.9 45.9-45.9h102.7v91.8zM751.2 219.3c27.6 0 50 22.4 50 50V320h-95.7l-51.2-100.7h96.9z m-195.1-92.7c3.6-2 7.8-2.5 11.7-1.3 3.9 1.2 7.2 3.9 9 7.6L671.9 320h-460l344.2-193.4z m311.5 741H158.2h-0.1V368s0.1 0 0.1 0.1c0.8 0.4 1.7 0.8 2.5 1.2 0.3 0.1 0.6 0.3 0.8 0.4 0.6 0.3 1.2 0.6 1.8 0.8 0.3 0.1 0.7 0.3 1 0.4 0.6 0.3 1.2 0.5 1.8 0.8 0.3 0.1 0.7 0.3 1 0.4 0.6 0.3 1.3 0.5 1.9 0.7l0.9 0.3 2.4 0.9c0.1 0 0.3 0.1 0.4 0.1 0.9 0.3 1.9 0.6 2.9 0.9 0.2 0.1 0.5 0.1 0.7 0.2l2.1 0.6c0.3 0.1 0.7 0.2 1 0.3 0.6 0.2 1.3 0.3 1.9 0.5 0.4 0.1 0.7 0.2 1.1 0.3 0.6 0.2 1.3 0.3 1.9 0.4 0.3 0.1 0.7 0.2 1 0.2 0.7 0.2 1.5 0.3 2.2 0.4 0.3 0 0.5 0.1 0.8 0.1 1 0.2 2 0.3 3 0.5 0.2 0 0.4 0.1 0.6 0.1 0.8 0.1 1.6 0.2 2.5 0.3 0.3 0 0.7 0.1 1 0.1 0.7 0.1 1.4 0.2 2 0.2 0.4 0 0.8 0.1 1.1 0.1 0.7 0.1 1.3 0.1 2 0.1 0.4 0 0.8 0.1 1.1 0.1 0.7 0 1.4 0.1 2.1 0.1H867.1s0.1 0.1 0.1 0v163H764.9c-41.9 0-75.9 34.1-75.9 75.9 0 41.9 34.1 75.9 75.9 75.9h102.7v173.2s-0.1 0 0 0z" fill="#8a8a8a" p-id="3399"></path></symbol><symbol id="icon-logo"><defs><style type="text/css"></style></defs><path d="M923.611429 32.402286h225.645714L585.069714 1018.88 20.882286 32.402286h431.616l132.571428 228.754285L714.861714 32.402286h208.749715z" fill="#41B883" p-id="4195"></path><path d="M20.882286 32.402286L585.069714 1018.88 1149.293714 32.402286h-225.682285L585.069714 624.274286 243.748571 32.402286H20.882286z" fill="#41B883" p-id="4196"></path><path d="M243.748571 32.402286l341.321143 594.761143L923.611429 32.402286h-208.749715L585.069714 261.12 452.498286 32.402286H243.748571z" fill="#35495E" p-id="4197"></path></symbol><symbol id="icon-menu"><defs><style type="text/css"></style></defs><path d="M334.933333 187.306667h561.28v123.306666H334.933333zM334.933333 449.6h561.28v123.306667H334.933333zM334.933333 713.28h561.28v123.306667H334.933333zM189.44 187.306667a61.653333 61.653333 0 1 0 61.546667 61.653333 61.546667 61.546667 0 0 0-61.546667-61.653333zM189.44 449.28a61.546667 61.546667 0 1 0 61.546667 61.546667 61.546667 61.546667 0 0 0-61.546667-61.546667zM189.44 712.426667a61.546667 61.546667 0 1 0 61.546667 61.546666 61.546667 61.546667 0 0 0-61.546667-61.546666z" p-id="4053" fill="#8a8a8a"></path></symbol><symbol id="icon-tabs"><defs><style type="text/css"></style></defs><path d="M849.92 875.52H174.08a25.6 25.6 0 0 1-25.6-25.6V174.08a25.6 25.6 0 0 1 25.6-25.6h337.92a25.7024 25.7024 0 0 1 25.6 24.8832L542.0032 327.68 849.92 325.632a25.7024 25.7024 0 0 1 25.6 25.6V849.92a25.6 25.6 0 0 1-25.6 25.6z m-650.24-51.2h624.64V377.0368l-307.2 1.8432a25.7024 25.7024 0 0 1-25.6-24.8832l-4.4032-154.3168H199.68z" fill="#8a8a8a" p-id="8829"></path><path d="M849.92 378.88H522.24a25.6 25.6 0 0 1-25.6-25.6V235.52a25.6 25.6 0 0 1 25.6-25.6h227.5328A127.488 127.488 0 0 1 875.52 338.7392v14.5408A25.6 25.6 0 0 1 849.92 378.88z m-301.9776-51.2h275.6608a75.776 75.776 0 0 0-73.8304-66.56H547.9424zM407.3472 295.8336h-122.88a20.48 20.48 0 0 1 0-40.96h122.88a20.48 20.48 0 0 1 0 40.96zM716.1856 533.8112H307.8144a25.6 25.6 0 1 1 0-51.2h408.3712a25.6 25.6 0 0 1 0 51.2zM576 705.4336H307.8144a25.6 25.6 0 0 1 0-51.2h268.1856a25.6 25.6 0 0 1 0 51.2z" fill="#8a8a8a" p-id="8830"></path></symbol><symbol id="icon-theme"><defs><style type="text/css"></style></defs><path d="M514.6 79c-247.4 0-448 193.9-448 433 0 238.6 199.6 433 446.1 433h1.9c107-0.4 95.9-106 74-146.9-34.7-64.8 16.4-83.6 67.1-96.1 70.9-17.6 292.4 24.7 301.3-190.7C967.5 257 762 79 514.6 79z m378.5 429.6c-1.2 28.9-7.2 52.2-18 69.1-8.3 13.1-20 23.4-35.9 31.3-36.3 18.1-87.6 20.9-128.7 23.2-26.8 1.5-50 2.7-70.2 7.7-30.5 7.5-93.9 23.3-118.2 78-10.2 22.9-16.7 60.6 10 110.5 1.9 3.5 5.7 13.6 6.7 26.4 0.8 10.9-1 18.3-2.8 21.3-0.4 0.7-0.7 1.1-2.1 1.8-1.9 1-7.5 3.2-19.7 3.3h-1.6c-51.9 0-102.1-9.9-149.4-29.3-45.5-18.7-86.4-45.5-121.5-79.7-35-34-62.4-73.5-81.5-117.3-19.7-45.2-29.7-93.3-29.7-142.7 0-49.6 10-97.7 29.8-142.9C179.5 325.4 207 286 242.2 252c35.3-34.1 76.4-60.9 122.1-79.6 47.5-19.4 98-29.3 150.2-29.3 56.5 0 110.6 10.4 160.6 30.9 48.7 20 91 48.5 125.7 84.6 30.9 32.2 54.6 69.4 70.2 110.5 16.7 43.3 24.1 90.2 22.1 139.5z" p-id="5516" fill="#8a8a8a"></path><path d="M279.8 392.1c-50.7 0-92 41.3-92 92s41.3 92 92 92 92-41.3 92-92-41.3-92-92-92z m0 120c-15.4 0-28-12.6-28-28s12.6-28 28-28 28 12.6 28 28c0 15.5-12.6 28-28 28zM720.2 297.1c0-50.7-41.3-92-92-92s-92 41.3-92 92 41.3 92 92 92 92-41.3 92-92z m-92 28c-15.4 0-28-12.6-28-28s12.6-28 28-28 28 12.6 28 28-12.5 28-28 28zM406.6 205.1c-50.7 0-92 41.3-92 92s41.3 92 92 92 92-41.3 92-92-41.3-92-92-92z m0 120c-15.4 0-28-12.6-28-28s12.6-28 28-28 28 12.6 28 28-12.6 28-28 28zM744.2 392.1c-50.7 0-92 41.3-92 92s41.3 92 92 92 92-41.3 92-92-41.3-92-92-92z m0 120c-15.4 0-28-12.6-28-28s12.6-28 28-28 28 12.6 28 28c0 15.5-12.6 28-28 28z" p-id="5517" fill="#8a8a8a"></path></symbol><symbol id="icon-tools"><defs><style type="text/css"></style></defs><path d="M536.509 515.037l-3.426-8.128-4.172 3.41zM431.34 549.696H194.782c-21.871 0-39.667 17.796-39.667 39.667v236.554c0 21.873 17.796 39.667 39.667 39.667h236.556c21.872 0 39.666-17.794 39.666-39.667V589.363c0-21.871-17.794-39.667-39.666-39.667z m-1.134 275.085H195.918V590.498h234.288V824.78zM192.211 508.242H428.77c21.871 0 39.665-17.794 39.665-39.664V232.02c0-21.87-17.794-39.664-39.665-39.664H192.21c-21.87 0-39.664 17.793-39.664 39.664v236.558c0 21.87 17.793 39.664 39.664 39.664z m1.138-275.087h234.285v234.286H193.349V233.155zM813.097 547.127H576.541c-21.862 0-39.647 17.794-39.647 39.665v236.556c0 21.871 17.785 39.665 39.647 39.665h236.556c21.881 0 39.684-17.794 39.684-39.665V586.792c0-21.87-17.803-39.665-39.684-39.665z m-1.116 275.086H577.697V587.927H811.98v234.286zM859.526 314.328L720.943 175.746c-7.087-7.065-16.505-10.957-26.516-10.957-10.009 0-19.422 3.892-26.537 10.981L529.377 314.303c-7.11 7.09-11.026 16.523-11.026 26.562s3.915 19.474 11 26.537l138.54 138.56c7.08 7.08 16.502 10.98 26.53 10.98 10.015 0 19.436-3.892 26.547-10.98L859.55 367.38c14.598-14.642 14.586-38.44-0.024-53.052zM694.429 471.414L563.901 340.865l130.528-130.547 130.548 130.547-130.548 130.549z" fill="#2C2C2C" p-id="4931"></path></symbol></svg>