<?xml version="1.0" standalone="no"?><!DOCTYPE svg PUBLIC "-//W3C//DTD SVG 1.1//EN" "http://www.w3.org/Graphics/SVG/1.1/DTD/svg11.dtd"><svg t="1595945264453" class="icon" viewBox="0 0 1024 1024" version="1.1" xmlns="http://www.w3.org/2000/svg" p-id="4906" xmlns:xlink="http://www.w3.org/1999/xlink" width="200" height="200"><defs><style type="text/css"></style></defs><path d="M877.963636 344.669091L549.585455 114.036364a63.930182 63.930182 0 0 0-73.192728-0.093091L146.385455 344.669091a63.697455 63.697455 0 0 0-27.275637 52.224v473.367273c0 35.141818 28.625455 63.767273 63.767273 63.767272h191.232v0.069819h275.781818v-0.093091h191.348364c35.141818 0 63.744-28.625455 63.744-63.767273V396.916364a63.813818 63.813818 0 0 0-26.996364-52.224zM589.544727 873.565091h-154.996363V594.664727A77.544727 77.544727 0 0 1 512 517.213091a77.544727 77.544727 0 0 1 77.451636 77.451636v278.900364h0.093091z m255.069091-3.304727a3.351273 3.351273 0 0 1-3.281454 3.304727h-191.348364V594.664727a138.053818 138.053818 0 0 0-137.890909-137.890909 138.053818 138.053818 0 0 0-137.890909 137.890909v278.900364H182.853818a3.351273 3.351273 0 0 1-3.304727-3.304727v-473.367273c0-1.024 0.581818-2.071273 1.419636-2.722909l330.007273-230.725818a3.397818 3.397818 0 0 1 3.770182 0l328.378182 230.632727c0.837818 0.651636 1.396364 1.605818 1.396363 2.722909v473.460364h0.116364z" p-id="4907" fill="#8a8a8a"></path></svg>