<?xml version="1.0" standalone="no"?><!DOCTYPE svg PUBLIC "-//W3C//DTD SVG 1.1//EN" "http://www.w3.org/Graphics/SVG/1.1/DTD/svg11.dtd"><svg t="1594178592580" class="icon" viewBox="0 0 1024 1024" version="1.1" xmlns="http://www.w3.org/2000/svg" p-id="5670" xmlns:xlink="http://www.w3.org/1999/xlink" width="200" height="200"><defs><style type="text/css"></style></defs><path d="M172.8 960c-64 0-108.8-44.8-108.8-96v-704C64 108.8 115.2 64 172.8 64H512v64H172.8c-19.2 0-32 12.8-32 32v704c0 19.2 19.2 32 38.4 32H512v64H172.8z m128-473.6h544l-147.2-147.2 51.2-51.2 185.6 185.6c19.2 12.8 25.6 32 25.6 51.2s-6.4 38.4-19.2 51.2l-185.6 185.6-51.2-51.2 147.2-147.2H300.8V486.4z" fill="#666666" p-id="5671"></path></svg>