<?xml version="1.0" standalone="no"?><!DOCTYPE svg PUBLIC "-//W3C//DTD SVG 1.1//EN" "http://www.w3.org/Graphics/SVG/1.1/DTD/svg11.dtd"><svg t="1595919009723" class="icon" viewBox="0 0 1024 1024" version="1.1" xmlns="http://www.w3.org/2000/svg" p-id="3397" xmlns:xlink="http://www.w3.org/1999/xlink" width="200" height="200"><defs><style type="text/css"></style></defs><path d="M786.2 603.9h30v30h-30z" fill="#8a8a8a" p-id="3398"></path><path d="M867.6 320h-6.3v-50.7c0-60.7-49.3-110-110-110H623.9l-20.3-40c-5.6-11-15.2-19.1-27.1-22.7s-24.3-2.2-35.1 3.8L174.2 306.7c-9.9-9.1-16.1-22.2-16.1-36.7v-0.7c0-27.6 22.4-50 50-50h121.8l106.8-60H208.1c-60.7 0-110 49.3-110 110V867.6c0 33.1 26.9 60 60 60h709.5c33.1 0 60-26.9 60-60V380c0-33.1-26.9-60-60-60z m0 344.8H764.9c-25.3 0-45.9-20.6-45.9-45.9 0-25.3 20.6-45.9 45.9-45.9h102.7v91.8zM751.2 219.3c27.6 0 50 22.4 50 50V320h-95.7l-51.2-100.7h96.9z m-195.1-92.7c3.6-2 7.8-2.5 11.7-1.3 3.9 1.2 7.2 3.9 9 7.6L671.9 320h-460l344.2-193.4z m311.5 741H158.2h-0.1V368s0.1 0 0.1 0.1c0.8 0.4 1.7 0.8 2.5 1.2 0.3 0.1 0.6 0.3 0.8 0.4 0.6 0.3 1.2 0.6 1.8 0.8 0.3 0.1 0.7 0.3 1 0.4 0.6 0.3 1.2 0.5 1.8 0.8 0.3 0.1 0.7 0.3 1 0.4 0.6 0.3 1.3 0.5 1.9 0.7l0.9 0.3 2.4 0.9c0.1 0 0.3 0.1 0.4 0.1 0.9 0.3 1.9 0.6 2.9 0.9 0.2 0.1 0.5 0.1 0.7 0.2l2.1 0.6c0.3 0.1 0.7 0.2 1 0.3 0.6 0.2 1.3 0.3 1.9 0.5 0.4 0.1 0.7 0.2 1.1 0.3 0.6 0.2 1.3 0.3 1.9 0.4 0.3 0.1 0.7 0.2 1 0.2 0.7 0.2 1.5 0.3 2.2 0.4 0.3 0 0.5 0.1 0.8 0.1 1 0.2 2 0.3 3 0.5 0.2 0 0.4 0.1 0.6 0.1 0.8 0.1 1.6 0.2 2.5 0.3 0.3 0 0.7 0.1 1 0.1 0.7 0.1 1.4 0.2 2 0.2 0.4 0 0.8 0.1 1.1 0.1 0.7 0.1 1.3 0.1 2 0.1 0.4 0 0.8 0.1 1.1 0.1 0.7 0 1.4 0.1 2.1 0.1H867.1s0.1 0.1 0.1 0v163H764.9c-41.9 0-75.9 34.1-75.9 75.9 0 41.9 34.1 75.9 75.9 75.9h102.7v173.2s-0.1 0 0 0z" fill="#8a8a8a" p-id="3399"></path></svg>