<?xml version="1.0" standalone="no"?><!DOCTYPE svg PUBLIC "-//W3C//DTD SVG 1.1//EN" "http://www.w3.org/Graphics/SVG/1.1/DTD/svg11.dtd"><svg t="1596185679969" class="icon" viewBox="0 0 1024 1024" version="1.1" xmlns="http://www.w3.org/2000/svg" p-id="4052" xmlns:xlink="http://www.w3.org/1999/xlink" width="200" height="200"><defs><style type="text/css"></style></defs><path d="M334.933333 187.306667h561.28v123.306666H334.933333zM334.933333 449.6h561.28v123.306667H334.933333zM334.933333 713.28h561.28v123.306667H334.933333zM189.44 187.306667a61.653333 61.653333 0 1 0 61.546667 61.653333 61.546667 61.546667 0 0 0-61.546667-61.653333zM189.44 449.28a61.546667 61.546667 0 1 0 61.546667 61.546667 61.546667 61.546667 0 0 0-61.546667-61.546667zM189.44 712.426667a61.546667 61.546667 0 1 0 61.546667 61.546666 61.546667 61.546667 0 0 0-61.546667-61.546666z" p-id="4053" fill="#8a8a8a"></path></svg>