<?xml version="1.0" standalone="no"?><!DOCTYPE svg PUBLIC "-//W3C//DTD SVG 1.1//EN" "http://www.w3.org/Graphics/SVG/1.1/DTD/svg11.dtd"><svg t="1596186249508" class="icon" viewBox="0 0 1024 1024" version="1.1" xmlns="http://www.w3.org/2000/svg" p-id="8828" xmlns:xlink="http://www.w3.org/1999/xlink" width="200" height="200"><defs><style type="text/css"></style></defs><path d="M849.92 875.52H174.08a25.6 25.6 0 0 1-25.6-25.6V174.08a25.6 25.6 0 0 1 25.6-25.6h337.92a25.7024 25.7024 0 0 1 25.6 24.8832L542.0032 327.68 849.92 325.632a25.7024 25.7024 0 0 1 25.6 25.6V849.92a25.6 25.6 0 0 1-25.6 25.6z m-650.24-51.2h624.64V377.0368l-307.2 1.8432a25.7024 25.7024 0 0 1-25.6-24.8832l-4.4032-154.3168H199.68z" fill="#8a8a8a" p-id="8829"></path><path d="M849.92 378.88H522.24a25.6 25.6 0 0 1-25.6-25.6V235.52a25.6 25.6 0 0 1 25.6-25.6h227.5328A127.488 127.488 0 0 1 875.52 338.7392v14.5408A25.6 25.6 0 0 1 849.92 378.88z m-301.9776-51.2h275.6608a75.776 75.776 0 0 0-73.8304-66.56H547.9424zM407.3472 295.8336h-122.88a20.48 20.48 0 0 1 0-40.96h122.88a20.48 20.48 0 0 1 0 40.96zM716.1856 533.8112H307.8144a25.6 25.6 0 1 1 0-51.2h408.3712a25.6 25.6 0 0 1 0 51.2zM576 705.4336H307.8144a25.6 25.6 0 0 1 0-51.2h268.1856a25.6 25.6 0 0 1 0 51.2z" fill="#8a8a8a" p-id="8830"></path></svg>