<?xml version="1.0" standalone="no"?><!DOCTYPE svg PUBLIC "-//W3C//DTD SVG 1.1//EN" "http://www.w3.org/Graphics/SVG/1.1/DTD/svg11.dtd"><svg t="1595945331730" class="icon" viewBox="0 0 1024 1024" version="1.1" xmlns="http://www.w3.org/2000/svg" p-id="5515" xmlns:xlink="http://www.w3.org/1999/xlink" width="200" height="200"><defs><style type="text/css"></style></defs><path d="M514.6 79c-247.4 0-448 193.9-448 433 0 238.6 199.6 433 446.1 433h1.9c107-0.4 95.9-106 74-146.9-34.7-64.8 16.4-83.6 67.1-96.1 70.9-17.6 292.4 24.7 301.3-190.7C967.5 257 762 79 514.6 79z m378.5 429.6c-1.2 28.9-7.2 52.2-18 69.1-8.3 13.1-20 23.4-35.9 31.3-36.3 18.1-87.6 20.9-128.7 23.2-26.8 1.5-50 2.7-70.2 7.7-30.5 7.5-93.9 23.3-118.2 78-10.2 22.9-16.7 60.6 10 110.5 1.9 3.5 5.7 13.6 6.7 26.4 0.8 10.9-1 18.3-2.8 21.3-0.4 0.7-0.7 1.1-2.1 1.8-1.9 1-7.5 3.2-19.7 3.3h-1.6c-51.9 0-102.1-9.9-149.4-29.3-45.5-18.7-86.4-45.5-121.5-79.7-35-34-62.4-73.5-81.5-117.3-19.7-45.2-29.7-93.3-29.7-142.7 0-49.6 10-97.7 29.8-142.9C179.5 325.4 207 286 242.2 252c35.3-34.1 76.4-60.9 122.1-79.6 47.5-19.4 98-29.3 150.2-29.3 56.5 0 110.6 10.4 160.6 30.9 48.7 20 91 48.5 125.7 84.6 30.9 32.2 54.6 69.4 70.2 110.5 16.7 43.3 24.1 90.2 22.1 139.5z" p-id="5516" fill="#8a8a8a"></path><path d="M279.8 392.1c-50.7 0-92 41.3-92 92s41.3 92 92 92 92-41.3 92-92-41.3-92-92-92z m0 120c-15.4 0-28-12.6-28-28s12.6-28 28-28 28 12.6 28 28c0 15.5-12.6 28-28 28zM720.2 297.1c0-50.7-41.3-92-92-92s-92 41.3-92 92 41.3 92 92 92 92-41.3 92-92z m-92 28c-15.4 0-28-12.6-28-28s12.6-28 28-28 28 12.6 28 28-12.5 28-28 28zM406.6 205.1c-50.7 0-92 41.3-92 92s41.3 92 92 92 92-41.3 92-92-41.3-92-92-92z m0 120c-15.4 0-28-12.6-28-28s12.6-28 28-28 28 12.6 28 28-12.6 28-28 28zM744.2 392.1c-50.7 0-92 41.3-92 92s41.3 92 92 92 92-41.3 92-92-41.3-92-92-92z m0 120c-15.4 0-28-12.6-28-28s12.6-28 28-28 28 12.6 28 28c0 15.5-12.6 28-28 28z" p-id="5517" fill="#8a8a8a"></path></svg>